<svg width="103" height="89" viewBox="0 0 103 89" fill="none" xmlns="http://www.w3.org/2000/svg">
<path d="M53.1369 61.2883V88.9963H103L51.5037 0L0 89H49.8362V61.292H45.7184V76.0615H42.4153V68.6621H35.0017V54.1453L45.7184 35.6164V53.8878H38.3011V65.3701H42.419V57.9964H64.6842V48.4316L67.9873 54.1453V61.2883H60.5676V76.0578H57.2645V61.2883H53.1369ZM60.5676 53.8878H49.8362V28.488L51.5037 25.6329L53.1405 28.477V50.5945H57.2706V35.6164L60.5737 41.3166L60.5676 53.8878ZM72.1027 80.1713V73.1784H67.9848V76.0627H64.6818V65.3969H67.9848V68.3765H72.1027V61.2615L80.6662 76.0627H75.4156V80.1713H87.8095L51.5037 17.4133L15.1758 80.1713H35.0017V76.0627H22.3203L30.8704 61.2932V72.7756H38.3011V80.1762H45.7184V84.8963H7.131L7.28147 84.6387L51.5037 8.21719L51.6529 8.46131L95.869 84.8914H57.2669V80.1713H72.1027Z" fill="#EE2700"/>
</svg>
