<svg width="38" height="38" viewBox="0 0 38 38" fill="none" xmlns="http://www.w3.org/2000/svg">
<path d="M34.4375 4.75H3.5625C1.59496 4.75 0 6.34496 0 8.3125V29.6875C0 31.655 1.59496 33.25 3.5625 33.25H34.4375C36.405 33.25 38 31.655 38 29.6875V8.3125C38 6.34496 36.405 4.75 34.4375 4.75ZM34.4375 8.3125V11.341C32.7734 12.6962 30.1203 14.8034 24.4486 19.2446C23.1987 20.2277 20.7228 22.5897 19 22.5622C17.2775 22.59 14.8008 20.2274 13.5514 19.2446C7.88055 14.804 5.22686 12.6964 3.5625 11.341V8.3125H34.4375ZM3.5625 29.6875V15.9124C5.26315 17.2669 7.67489 19.1677 11.3509 22.0462C12.9731 23.3232 15.8139 26.1421 19 26.1249C22.1704 26.1421 24.9753 23.3641 26.6485 22.0468C30.3244 19.1684 32.7368 17.2671 34.4375 15.9124V29.6875H3.5625Z" fill="#EE2700"/>
</svg>
