<svg width="24" height="38" viewBox="0 0 24 38" fill="none" xmlns="http://www.w3.org/2000/svg">
<path d="M20.4 0H3.6C1.6125 0 0 1.5957 0 3.5625V34.4375C0 36.4043 1.6125 38 3.6 38H20.4C22.3875 38 24 36.4043 24 34.4375V3.5625C24 1.5957 22.3875 0 20.4 0ZM12 35.625C10.6725 35.625 9.6 34.5637 9.6 33.25C9.6 31.9363 10.6725 30.875 12 30.875C13.3275 30.875 14.4 31.9363 14.4 33.25C14.4 34.5637 13.3275 35.625 12 35.625ZM20.4 27.6094C20.4 28.0992 19.995 28.5 19.5 28.5H4.5C4.005 28.5 3.6 28.0992 3.6 27.6094V4.45312C3.6 3.96328 4.005 3.5625 4.5 3.5625H19.5C19.995 3.5625 20.4 3.96328 20.4 4.45312V27.6094Z" fill="#EE2700"/>
</svg>
