<svg width="68" height="68" viewBox="0 0 68 68" fill="none" xmlns="http://www.w3.org/2000/svg">
<g clip-path="url(#clip0_66_367)">
<path d="M24.5553 53.8285C21.02 57.4704 17.6916 60.913 14.3423 64.3369C13.63 65.0626 12.9387 66.1472 11.7236 65.1583C10.938 64.5123 11.1789 63.7919 12.5249 62.4096C15.8376 59.0122 19.145 55.6069 22.311 52.3505L15.9633 45.8775C13.8447 47.9908 11.5114 50.3142 9.1938 52.6296C8.85337 52.9725 8.54179 53.4537 8.13065 53.5839C7.6619 53.7302 6.86843 53.7541 6.62751 53.4696C6.32112 53.1108 6.30276 52.3638 6.40227 51.8321C6.47036 51.4626 6.926 51.1569 7.24287 50.8459C9.59972 48.4986 11.9697 46.1539 14.4785 43.6684C12.6663 42.5599 13.0146 41.1031 13.2476 39.6357C13.5095 37.9317 13.6405 36.2038 13.9416 34.5078C14.083 33.6917 13.8264 33.1999 13.2843 32.647C10.3016 29.6617 7.34764 26.6471 4.38062 23.6352C3.03984 22.2715 3.04504 21.8728 4.41202 20.4798C6.816 18.0341 9.22263 15.5911 11.6319 13.1508C15.8925 8.84165 20.9284 7.48325 26.7603 8.97457C27.3243 9.05623 27.8976 8.91336 28.3603 8.57582C36.7402 2.47496 46.0707 -0.462492 56.3649 0.0452487C59.1355 0.178165 61.8773 0.842747 64.6349 1.24415C65.6509 1.39036 66.0856 1.96988 66.3108 2.96675C69.3065 16.2584 66.866 28.4309 59.1565 39.54C58.9045 39.8539 58.7334 40.2264 58.6584 40.6241C58.5834 41.0217 58.607 41.4321 58.727 41.8182C60.0128 46.986 59.0229 51.7125 55.4981 55.676C52.7851 58.7305 49.8181 61.5563 46.9375 64.4485C46.0053 65.3869 45.4579 65.3205 44.3895 64.2412C41.3596 61.1788 38.3271 58.127 35.3313 55.0221C35.1135 54.7549 34.8265 54.5548 34.5026 54.4444C34.1786 54.334 33.8308 54.3178 33.4982 54.3974C31.6965 54.7137 29.8713 54.8972 28.0591 55.1736C26.7629 55.389 25.5111 55.5325 24.5553 53.8285ZM65.114 13.3183C64.771 10.5589 64.4122 7.79693 64.0928 5.03227C63.9802 4.054 63.4826 3.63931 62.5425 3.47183C58.6144 2.76206 54.6863 2.35799 50.698 2.86042C33.9172 4.98708 22.2299 13.9164 15.7276 29.7999C15.3715 30.6692 15.4998 31.2062 16.1623 31.8734C22.8191 38.5777 29.4479 45.3121 36.0489 52.0767C36.8004 52.8476 37.3871 52.8742 38.3167 52.5339C54.1233 46.4942 64.9334 30.6054 65.114 13.3183ZM13.3445 28.6834C15.8427 22.0521 19.8459 16.1122 25.0293 11.3458C20.9153 10.6493 17.456 11.4574 14.5544 14.0839C12.2499 16.1733 10.1497 18.4914 7.91852 20.6685C7.45762 21.1178 6.82653 21.389 6.43372 21.6415L13.3445 28.6834ZM45.5548 61.426C48.3569 58.7517 51.316 56.0668 54.084 53.2118C54.9325 52.3425 55.4222 51.0479 55.8857 49.8703C56.7053 47.7888 56.7917 45.6169 56.3282 43.1314C51.6394 48.4115 45.7833 52.4867 39.2411 55.0221L45.5548 61.426ZM31.7516 51.9544L16.3403 36.3075C16.1413 37.7456 15.8899 39.3008 15.7406 40.8665C15.7092 41.1749 16.0025 41.5869 16.2644 41.8448C19.6111 45.2687 22.9701 48.6785 26.3412 52.074C26.5691 52.3053 26.9253 52.6057 27.1898 52.5738C28.7767 52.401 30.3479 52.1485 31.7594 51.9491L31.7516 51.9544Z" fill="white"/>
<path d="M2.08442 67.9999C0.937418 68.0424 0.251339 67.0296 0.670334 66.1656C0.839084 65.8569 1.05571 65.5777 1.31191 65.3389C4.47707 62.1099 7.65005 58.8871 10.8309 55.6706C11.7265 54.7641 12.7897 54.6365 13.1197 55.4632C13.3239 55.9789 13.2113 56.9386 12.8578 57.3241C9.58965 60.7613 6.23768 64.1161 2.90667 67.4789C2.65637 67.6885 2.37992 67.8637 2.08442 67.9999Z" fill="white"/>
<path d="M5.26882 56.5161C4.78436 56.8404 4.32875 57.3694 3.81286 57.4385C3.00368 57.5501 2.40135 56.9334 2.61609 56.1306C2.74179 55.6521 3.40172 55.046 3.87571 55.0141C4.3497 54.9822 4.81056 55.6149 5.28193 55.9578L5.26882 56.5161Z" fill="white"/>
<path d="M36.5363 23.994C35.5727 23.1168 34.7163 22.4256 33.9647 21.6334C33.0351 20.6499 33.2996 19.5599 34.5828 19.2037C40.1694 17.6513 45.7621 16.1307 51.3609 14.642C52.6703 14.2991 53.4376 15.1152 53.0945 16.447C51.6263 22.1235 50.1275 27.7972 48.5982 33.4683C48.2499 34.7549 47.1631 34.9942 46.1889 34.0345C45.4033 33.2743 44.7356 32.4103 43.9395 31.5065L35.1406 40.4544C33.805 41.8101 33.0456 42.0494 32.4459 41.2519C31.5162 40.0211 32.5585 39.3273 33.2787 38.5936C36.2291 35.5808 39.1874 32.5742 42.1535 29.5739C43.6331 28.0692 44.0023 28.0533 45.4374 29.5526C45.7647 29.8955 45.9611 30.3714 46.223 30.7861L46.6708 30.5016C47.7759 26.3334 48.8783 22.1651 50.0489 17.7416L37.5131 21.1443L37.2513 21.5617C37.8195 22.0162 38.4218 22.4336 38.9456 22.936C39.6709 23.6272 39.7102 24.3981 38.9874 25.1371C37.081 27.0866 35.1694 29.028 33.2525 30.9615C32.6606 31.5596 31.9693 31.8201 31.2963 31.1662C30.6233 30.5122 30.7725 29.728 31.4167 29.0768C33.0377 27.4552 34.6902 25.8256 36.5363 23.994Z" fill="white"/>
<path d="M27.4857 36.1532C27.1453 35.6455 26.522 35.1191 26.5508 34.63C26.5744 34.1914 27.2579 33.5454 27.7476 33.4338C27.9192 33.3894 28.0992 33.3906 28.2702 33.4373C28.4412 33.484 28.5975 33.5746 28.724 33.7004C28.8506 33.8262 28.9431 33.9829 28.9927 34.1555C29.0423 34.3281 29.0473 34.5107 29.0072 34.6858C28.9286 35.2042 28.3918 35.6508 28.0592 36.1293L27.4857 36.1532Z" fill="white"/>
</g>
<defs>
<clipPath id="clip0_66_367">
<rect width="68" height="68" fill="white"/>
</clipPath>
</defs>
</svg>
