<svg width="75" height="75" viewBox="0 0 75 75" fill="none" xmlns="http://www.w3.org/2000/svg">
<path d="M15.9971 67.5142C12.8206 69.0548 10.4383 68.8987 8.37065 67.02C6.38103 65.2163 5.73996 62.4618 6.9268 60.0454C7.38883 59.1147 7.20113 58.554 6.70734 57.7533C-1.40708 44.5847 -1.56013 31.2773 6.1298 17.8658C6.69001 16.8889 7.23292 15.6373 8.75763 16.3484C9.73078 16.8022 9.62389 17.649 8.64208 19.3313C7.77577 20.7996 7.0077 22.3257 6.09807 24.005H20.3431C21.1458 21.632 22.7427 20.0828 25.2521 19.4671C25.59 19.3862 25.8903 18.7676 26.0347 18.337C27.2966 14.5621 28.4748 10.7583 29.7887 7.00081C30.1612 5.93714 30.8947 4.99776 31.7061 3.56701C29.217 4.33586 27.0223 4.82434 24.9923 5.69435C22.7052 6.67131 20.5509 7.96331 18.3765 9.18595C17.4467 9.70911 16.5775 10.0993 15.8845 9.00097C15.2232 7.95753 15.9509 7.32742 16.7508 6.76379C28.7867 -1.70508 45.4833 -1.78312 58.0592 6.58459C58.6079 6.95167 59.015 7.31297 59.8293 6.89676C62.4427 5.56428 65.0705 6.02964 66.9851 7.97199C68.8996 9.91433 69.2519 12.5533 67.9496 15.1691C67.8456 15.3801 67.7388 15.594 67.6406 15.7876C72.6882 22.908 75.0731 31.5785 74.3779 40.2815C73.6826 48.9845 69.9515 57.1655 63.8375 63.3925C57.638 69.6311 49.4301 73.4685 40.6715 74.2231C31.9129 74.9777 23.1705 72.6007 15.9971 67.5142ZM50.6985 26.9648C50.6985 32.3409 50.6985 37.4801 50.7187 42.6163C50.7187 42.9747 50.9295 43.521 51.201 43.654C52.9509 44.5211 54.0309 45.9114 54.6488 47.7699C59.5377 47.7699 64.3861 47.7901 69.2346 47.7236C69.5955 47.7236 70.15 47.1282 70.2713 46.7091C72.0703 40.5121 72.027 34.2977 70.3608 28.0689C70.1384 27.2307 69.7833 26.9301 68.8881 26.9446C65.0936 26.9937 61.2964 26.9648 57.5019 26.9648H50.6985ZM20.3373 26.9648C15.665 26.9648 11.0014 27.0024 6.3377 26.9359C5.29813 26.9185 4.92852 27.2943 4.68306 28.225C3.08249 34.2098 3.07551 40.5098 4.66283 46.4981C4.9516 47.556 5.4339 47.8017 6.45614 47.793C12.0872 47.7439 17.7182 47.7699 23.3492 47.7699H24.3771C24.3771 42.4284 24.3772 37.3298 24.3541 32.234C24.3541 31.8409 24.1202 31.2426 23.8198 31.0952C22.067 30.2396 20.9783 28.858 20.3373 26.9648ZM27.3862 47.7757C32.584 47.7757 37.34 47.793 42.0961 47.7352C42.4455 47.7352 42.9191 47.2149 43.1096 46.8247C43.8922 45.235 45.0386 44.0268 46.7279 43.5152C47.6173 43.2493 47.8483 42.7926 47.8454 41.9775C47.8454 38.9484 47.9032 35.9077 47.8454 32.8872C47.8021 30.9362 47.574 28.991 47.4296 27.0168H32.2173C31.4838 29.1499 30.1526 30.6645 27.9608 31.3813C27.6489 31.4854 27.3024 32.0866 27.3024 32.4566C27.288 37.4974 27.3429 42.5412 27.3862 47.7757ZM47.0225 24.0137C46.9301 23.3402 46.8665 22.7304 46.7625 22.1263C45.8356 16.8137 44.7239 11.5474 41.8968 6.85051C39.0698 2.15361 36.0983 2.10736 33.2106 6.76669C30.8485 10.582 29.7454 14.8598 28.8791 19.1954C28.8184 19.5076 29.061 19.9671 29.3007 20.2388C30.346 21.4297 31.4433 22.5743 32.7659 23.9964L47.0225 24.0137ZM28.0128 50.6661C28.2265 51.9783 28.3824 53.1634 28.6106 54.3311C29.5433 59.1118 30.6694 63.8376 33.2626 68.0403C36.0608 72.5782 39.0005 72.5782 41.8304 68.0403C44.2099 64.2307 45.3302 59.9471 46.1821 55.6115C46.2485 55.2734 45.9251 54.7936 45.671 54.4727C44.8191 53.4033 43.9384 52.3685 43.0288 51.3366C42.8035 51.0794 42.5061 50.7008 42.2376 50.6979C37.5422 50.6661 32.8266 50.6661 28.0128 50.6661ZM43.4851 70.8353C55.674 69.075 65.6971 59.3257 68.6945 50.7412H54.6228C53.8143 53.1171 52.2636 54.5941 49.8668 55.2242C49.5203 55.3138 49.1651 55.9179 49.0698 56.3428C47.9118 61.3808 46.5489 66.3263 43.4822 70.8411L43.4851 70.8353ZM57.1958 9.50679C53.1042 6.59187 48.4073 4.6404 43.4561 3.79825C47.5856 10.0502 48.885 16.9871 50.017 23.9472H69.018L65.469 17.6577C62.7257 18.7243 60.3896 18.4526 58.4375 16.5333C56.445 14.5737 56.1476 12.1977 57.1929 9.51257L57.1958 9.50679ZM9.55463 57.0249C15.3098 54.8745 20.0543 59.7593 17.9578 65.2799C22.0264 68.1743 26.6989 70.1056 31.6224 70.9278C27.4872 64.6383 26.1964 57.7013 25.0587 50.7499H6.06628L9.55463 57.0249ZM45.5729 49.2816C45.5796 50.1061 45.9096 50.895 46.4919 51.4783C47.0741 52.0617 47.862 52.3928 48.6858 52.4003C49.5357 52.3965 50.3494 52.0559 50.9491 51.453C51.5487 50.8501 51.8853 50.034 51.8853 49.1833C51.8661 48.3541 51.5277 47.5643 50.9407 46.9789C50.3536 46.3935 49.5634 46.0576 48.7349 46.0414C48.3138 46.039 47.8965 46.1212 47.5078 46.2832C47.1191 46.4452 46.7668 46.6837 46.4719 46.9845C46.177 47.2854 45.9455 47.6424 45.791 48.0345C45.6366 48.4266 45.5624 48.8458 45.5729 49.2671V49.2816ZM62.6102 9.06744C61.7862 9.08158 61 9.41571 60.4175 9.99925C59.8351 10.5828 59.502 11.3701 59.4886 12.1949C59.4847 12.6185 59.5655 13.0386 59.7261 13.4306C59.8867 13.8225 60.1239 14.1784 60.4239 14.4773C60.7238 14.7762 61.0805 15.0121 61.4728 15.1711C61.8651 15.3301 62.2852 15.409 62.7084 15.4032C63.5369 15.3875 64.327 15.0501 64.9116 14.4622C65.4963 13.8744 65.8297 13.0821 65.8415 12.2527C65.8454 11.829 65.7647 11.4089 65.6041 11.0169C65.4435 10.625 65.2062 10.2691 64.9063 9.97021C64.6063 9.67132 64.2497 9.43545 63.8574 9.27645C63.4651 9.11745 63.045 9.03853 62.6218 9.04432L62.6102 9.06744ZM29.4566 25.4502C29.4385 24.6191 29.0959 23.8281 28.5021 23.2467C27.9084 22.6654 27.1107 22.34 26.2802 22.3402C25.8581 22.3401 25.4403 22.4242 25.0511 22.5876C24.6619 22.751 24.3091 22.9903 24.0134 23.2917C23.7176 23.5931 23.4849 23.9505 23.3287 24.3429C23.1725 24.7354 23.096 25.155 23.1037 25.5774C23.1188 26.4106 23.4602 27.2045 24.0543 27.7883C24.6483 28.3721 25.4476 28.6992 26.2802 28.699C26.7025 28.6968 27.1202 28.6107 27.5091 28.4458C27.898 28.2809 28.2504 28.0404 28.5458 27.7382C28.8412 27.4361 29.0739 27.0783 29.2302 26.6856C29.3866 26.2928 29.4635 25.8729 29.4566 25.4502ZM15.5957 62.4618C15.5814 61.6311 15.2428 60.839 14.6523 60.2551C14.0619 59.6711 13.2666 59.3417 12.4366 59.3373C12.0158 59.3372 11.5991 59.4209 11.2109 59.5834C10.8226 59.7459 10.4705 59.9839 10.175 60.2838C9.87943 60.5836 9.64634 60.9393 9.48928 61.33C9.33222 61.7208 9.25434 62.1389 9.26008 62.5601C9.27132 63.3893 9.60583 64.1813 10.1923 64.7672C10.7787 65.3531 11.5705 65.6864 12.399 65.6961C12.8218 65.6966 13.2406 65.6129 13.6309 65.4501C14.0211 65.2873 14.3753 65.0485 14.6726 64.7476C14.97 64.4467 15.2047 64.0897 15.3632 63.6974C15.5216 63.305 15.6007 62.885 15.5957 62.4618Z" fill="white"/>
<path d="M11.8627 14.1842C11.4786 13.6321 10.7422 13.028 10.8028 12.5424C10.8635 12.0568 11.6287 11.2851 12.186 11.1868C12.5586 11.1203 13.4393 11.9643 13.4768 12.4499C13.5202 12.9904 12.8676 13.5887 12.5182 14.1639L11.8627 14.1842Z" fill="white"/>
</svg>
