<svg width="28" height="24" viewBox="0 0 28 24" fill="none" xmlns="http://www.w3.org/2000/svg">
<path d="M14.445 16.5272V23.999H28L14.001 0L0 24H13.5477V16.5282H12.4283V20.511H11.5304V18.5156H9.51502V14.601L12.4283 9.60441V14.5315H10.412V17.6279H11.5314V15.6395H17.5841V13.0602L18.482 14.601V16.5272H16.465V20.51H15.567V16.5272H14.445ZM16.465 14.5315H13.5477V7.68215L14.001 6.91225L14.446 7.67918V13.6435H15.5687V9.60441L16.4666 11.1416L16.465 14.5315ZM19.6007 21.6192V19.7335H18.4813V20.5113H17.5834V17.6351H18.4813V18.4386H19.6007V16.52L21.9287 20.5113H20.5013V21.6192H23.8705L14.001 4.69572L4.12547 21.6192H9.51502V20.5113H6.06765L8.39195 16.5285V19.6249H10.412V21.6205H12.4283V22.8934H1.93852L1.97943 22.8239L14.001 2.21587L14.0416 2.2817L26.0615 22.8921H15.5677V21.6192H19.6007Z" fill="white"/>
<path d="M14.445 16.5272V23.999H28L14.001 0L0 24H13.5477V16.5282H12.4283V20.511H11.5304V18.5156H9.51502V14.601L12.4283 9.60441V14.5315H10.412V17.6279H11.5314V15.6395H17.5841V13.0602L18.482 14.601V16.5272H16.465V20.51H15.567V16.5272H14.445ZM16.465 14.5315H13.5477V7.68215L14.001 6.91225L14.446 7.67918V13.6435H15.5687V9.60441L16.4666 11.1416L16.465 14.5315ZM19.6007 21.6192V19.7335H18.4813V20.5113H17.5834V17.6351H18.4813V18.4386H19.6007V16.52L21.9287 20.5113H20.5013V21.6192H23.8705L14.001 4.69572L4.12547 21.6192H9.51502V20.5113H6.06765L8.39195 16.5285V19.6249H10.412V21.6205H12.4283V22.8934H1.93852L1.97943 22.8239L14.001 2.21587L14.0416 2.2817L26.0615 22.8921H15.5677V21.6192H19.6007Z" fill="white"/>
</svg>
