<svg width="165" height="17" viewBox="0 0 165 17" fill="none" xmlns="http://www.w3.org/2000/svg">
<g clip-path="url(#clip0_20_264)">
<path d="M7.44753 0.160767L0 16.7142H1.88458L3.83033 12.37L4.55061 10.7247L8.28226 2.34977L11.9981 10.7247H7.93298L7.22256 12.37H12.7184L14.6365 16.7142H16.6198L9.17226 0.160767H7.44753Z" fill="white"/>
<path d="M31.7891 2.62757C30.9887 1.87727 30.0502 1.29144 29.0264 0.90296C27.9043 0.47958 26.7142 0.267664 25.5158 0.277814H19.8443V16.7142H25.5158C26.7185 16.7296 27.9129 16.5127 29.0343 16.0752C30.0571 15.6801 30.995 15.0913 31.797 14.3406C32.5645 13.6026 33.1696 12.7108 33.5731 11.7229C34.001 10.6924 34.2159 9.58498 34.2045 8.46822C34.2157 7.35789 34.0008 6.257 33.5731 5.23334C33.1642 4.24993 32.5567 3.36262 31.7891 2.62757ZM31.8069 11.0819C31.4936 11.8487 31.0352 12.547 30.4571 13.138C29.846 13.7398 29.1158 14.2057 28.314 14.5053C27.421 14.8483 26.4715 15.018 25.5158 15.0055H21.6854V1.98456H25.5158C26.4725 1.97124 27.4228 2.14444 28.314 2.4946C29.1052 2.79201 29.8252 3.25378 30.427 3.84981C31.0289 4.44583 31.499 5.16272 31.8069 5.95374C32.1293 6.76667 32.2921 7.6347 32.2864 8.50989C32.2965 9.39063 32.1336 10.2647 31.8069 11.0819Z" fill="white"/>
<path d="M45.5021 9.59947H50.479V13.6937C49.8494 14.1887 49.1479 14.5836 48.3991 14.8646C47.5571 15.189 46.6623 15.3526 45.7607 15.3468C44.8399 15.3641 43.9258 15.1876 43.0769 14.8289C42.3063 14.5066 41.6137 14.0213 41.0463 13.4059C40.4741 12.7722 40.0333 12.03 39.7497 11.2229C39.4409 10.3449 39.2873 9.41934 39.2959 8.4881C39.2916 7.59057 39.4515 6.69989 39.7675 5.8605C40.0605 5.07136 40.4938 4.34239 41.0463 3.70921C41.6009 3.09623 42.2719 2.60096 43.0196 2.25252C43.8022 1.89063 44.6547 1.70763 45.516 1.71668C46.0452 1.71153 46.5737 1.75605 47.0947 1.84965C47.5423 1.93738 47.98 2.07036 48.401 2.24657C48.7897 2.40269 49.1619 2.59748 49.512 2.82805C49.8586 3.06026 50.1883 3.31692 50.4987 3.59609L51.6828 2.18504C51.2833 1.85132 50.8649 1.5412 50.4297 1.25626C49.5223 0.683183 48.5073 0.304192 47.4479 0.1429C46.8281 0.042499 46.201 -0.00529958 45.5732 9.77423e-06C44.4628 -0.0186913 43.3612 0.199441 42.3407 0.640035C41.3203 1.08063 40.4043 1.73368 39.6531 2.55616C38.927 3.34841 38.3601 4.27434 37.9836 5.28299C37.5855 6.3142 37.3847 7.41171 37.3916 8.51787C37.3818 9.64861 37.5743 10.7719 37.9599 11.8341C38.3239 12.8389 38.8894 13.7576 39.6215 14.5332C40.3564 15.3109 41.2451 15.9254 42.2303 16.3372C43.3293 16.7924 44.509 17.0179 45.6975 17C46.9851 17.0179 48.2622 16.7651 49.4469 16.2578C50.4678 15.8204 51.415 15.2266 52.255 14.4974V7.94829H45.5021V9.59947Z" fill="white"/>
<path d="M70.0667 2.52038C69.2893 1.70554 68.3529 1.06105 67.3161 0.627326C66.2794 0.193605 65.1647 -0.0199872 64.042 -5.36641e-05C62.912 -0.0202309 61.7901 0.19665 60.7481 0.636758C59.706 1.07687 58.7666 1.73054 57.9897 2.5561C57.2562 3.34444 56.6794 4.26666 56.2906 5.273C55.8809 6.30493 55.6732 7.40669 55.6789 8.51781C55.6745 9.62955 55.8752 10.7325 56.2709 11.7706C56.6569 12.7778 57.2374 13.6983 57.9788 14.479C58.7201 15.2597 59.6078 15.8851 60.5906 16.3192C61.665 16.7846 62.825 17.0165 63.9947 16.9999C65.1661 17.0156 66.3271 16.7773 67.3987 16.3014C68.3944 15.8685 69.292 15.2365 70.0371 14.4438C70.77 13.6534 71.349 12.7319 71.7441 11.7269C72.1477 10.69 72.3526 9.58566 72.348 8.47216C72.3554 7.36016 72.1545 6.25669 71.7559 5.21942C71.3722 4.21813 70.7984 3.30144 70.0667 2.52038ZM69.9602 11.1633C69.6605 11.9575 69.2108 12.686 68.636 13.3086C68.0734 13.9293 67.3859 14.4225 66.6193 14.7554C65.8065 15.111 64.9283 15.2902 64.042 15.2813C63.154 15.2911 62.2743 15.1083 61.4628 14.7455C60.6968 14.3971 60.0037 13.9055 59.4204 13.2967C58.8344 12.6726 58.3781 11.9372 58.0785 11.1335C57.7552 10.2862 57.5919 9.38565 57.597 8.47812C57.5912 7.57697 57.7546 6.68282 58.0785 5.84258C58.3811 5.04589 58.8288 4.31296 59.3987 3.68136C59.9665 3.06869 60.6528 2.57908 61.4155 2.24253C62.2288 1.88454 63.1088 1.70524 63.9966 1.71662C64.884 1.70659 65.7632 1.88937 66.5739 2.25246C67.3417 2.60209 68.0357 3.09659 68.6183 3.70915C69.2043 4.3332 69.6605 5.06864 69.9602 5.87235C70.287 6.71546 70.453 7.61291 70.4496 8.51781C70.4537 9.42277 70.2877 10.3204 69.9602 11.1633Z" fill="white"/>
<path d="M86.5247 9.43865C87.0474 9.18843 87.5255 8.85316 87.9396 8.44636C88.3357 8.04008 88.6494 7.56015 88.8631 7.03333C89.0851 6.44613 89.1936 5.82172 89.1828 5.19361C89.2001 4.51473 89.0644 3.84073 88.7858 3.22208C88.5073 2.60344 88.0932 2.0562 87.5745 1.62135C87.0259 1.17182 86.395 0.83471 85.7176 0.629058C84.9269 0.385418 84.1034 0.266911 83.2765 0.277785H76.2513V4.66174H78.0924V1.98453H83.1482C84.4822 1.98453 85.5044 2.27031 86.2405 2.84386C86.9766 3.41741 87.3436 4.23307 87.3436 5.26506C87.3534 5.76329 87.2444 6.25663 87.0259 6.70389C86.824 7.12807 86.5218 7.49603 86.1458 7.77557C85.7467 8.08288 85.2944 8.31302 84.8118 8.4543C84.266 8.61231 83.7004 8.69051 83.1324 8.68649H76.2513V16.7142H78.0924V10.3317H82.7654L87.5015 16.7142H89.7689L84.7486 10.0003C85.3644 9.89999 85.9626 9.71083 86.5247 9.43865Z" fill="white"/>
<path d="M95.1366 0.277832H93.2974V16.7142H95.1366V0.277832Z" fill="white"/>
<path d="M98.7537 1.99252H104.248V16.7142H106.087V1.99252H111.579V0.277832H98.7537V1.99252Z" fill="white"/>
<path d="M126.332 7.57914H116.903V0.277832H115.054V16.7142H116.903V9.32161H126.332V16.7142H128.181V0.277832H126.332V7.57914Z" fill="white"/>
<path d="M140.623 9.25016L134.667 0.277832H132.8V16.7142H134.596V3.42341L140.552 12.2092H140.641L146.594 3.40555V16.7142H148.443V0.277832H146.577L140.623 9.25016Z" fill="white"/>
<path d="M154.912 15.0233V9.27795H163.826V7.57914H154.912V1.97466H164.876V0.277832H153.063V16.7142H165V15.0233H154.912Z" fill="white"/>
</g>
<defs>
<clipPath id="clip0_20_264">
<rect width="165" height="17" fill="white"/>
</clipPath>
</defs>
</svg>
