<svg width="370" height="316" viewBox="0 0 370 316" fill="none" xmlns="http://www.w3.org/2000/svg">
<path d="M190.859 217.608V315.987H369.334L185.013 0L0.666992 316H179.045V217.621H164.306V270.061H152.484V243.789H125.948V192.246L164.306 126.458V191.332H137.758V232.101H152.497V205.92H232.19V171.959L244.013 192.246V217.608H217.456V270.048H205.633V217.608H190.859ZM217.456 191.332H179.045V101.148L185.013 91.0113L190.872 101.109V179.639H205.655V126.458L217.478 146.697L217.456 191.332ZM258.743 284.653V259.824H244.004V270.065H232.182V232.196H244.004V242.775H258.743V217.513L289.395 270.065H270.601V284.653H314.962L185.013 61.827L54.9857 284.653H125.948V270.065H80.5578L111.161 217.625V258.394H137.758V284.67H164.306V301.43H26.1909L26.7295 300.515L185.013 29.1756L185.548 30.0424L343.81 301.412H205.642V284.653H258.743Z" fill="#EE2700"/>
<path d="M190.859 217.608V315.987H369.334L185.013 0L0.666992 316H179.045V217.621H164.306V270.061H152.484V243.789H125.948V192.246L164.306 126.458V191.332H137.758V232.101H152.497V205.92H232.19V171.959L244.013 192.246V217.608H217.456V270.048H205.633V217.608H190.859ZM217.456 191.332H179.045V101.148L185.013 91.0113L190.872 101.109V179.639H205.655V126.458L217.478 146.697L217.456 191.332ZM258.743 284.653V259.824H244.004V270.065H232.182V232.196H244.004V242.775H258.743V217.513L289.395 270.065H270.601V284.653H314.962L185.013 61.827L54.9857 284.653H125.948V270.065H80.5578L111.161 217.625V258.394H137.758V284.67H164.306V301.43H26.1909L26.7295 300.515L185.013 29.1756L185.548 30.0424L343.81 301.412H205.642V284.653H258.743Z" fill="#EE2700"/>
</svg>
