<svg width="370" height="316" viewBox="0 0 370 316" fill="none" xmlns="http://www.w3.org/2000/svg">
<path d="M179.141 98.3919L179.141 0.0129839L0.666867 0.0129683L184.987 316L369.334 0L190.955 -1.55943e-05L190.955 98.3789L205.694 98.3789L205.694 45.939L217.517 45.939L217.517 72.211L244.052 72.211L244.052 123.754L205.694 189.542L205.694 124.668L232.243 124.668L232.243 83.8994L217.504 83.8994L217.504 110.08L137.81 110.08L137.81 144.041L125.987 123.754L125.987 98.3919L152.545 98.3919L152.545 45.952L164.367 45.952L164.367 98.3919L179.141 98.3919ZM152.545 124.668L190.955 124.668L190.955 214.852L184.987 224.989L179.128 214.891L179.128 136.361L164.345 136.361L164.345 189.542L152.523 169.303L152.545 124.668ZM111.257 31.3469L111.257 56.1756L125.996 56.1756L125.996 45.9347L137.819 45.9347L137.819 83.8041L125.996 83.8041L125.996 73.2251L111.257 73.2251L111.257 98.4872L80.6058 45.9347L99.3995 45.9347L99.3995 31.3469L55.0381 31.3469L184.987 254.173L315.015 31.3469L244.052 31.3469L244.052 45.9347L289.443 45.9347L258.839 98.3746L258.839 57.6058L232.243 57.6058L232.243 31.3296L205.694 31.3296L205.694 14.5705L343.81 14.5705L343.271 15.4849L184.987 286.824L184.453 285.958L26.1907 14.5878L164.359 14.5878L164.359 31.3469L111.257 31.3469Z" fill="#EE2700"/>
<path d="M179.141 98.3919L179.141 0.0129839L0.666867 0.0129683L184.987 316L369.334 0L190.955 -1.55943e-05L190.955 98.3789L205.694 98.3789L205.694 45.939L217.517 45.939L217.517 72.211L244.052 72.211L244.052 123.754L205.694 189.542L205.694 124.668L232.243 124.668L232.243 83.8994L217.504 83.8994L217.504 110.08L137.81 110.08L137.81 144.041L125.987 123.754L125.987 98.3919L152.545 98.3919L152.545 45.952L164.367 45.952L164.367 98.3919L179.141 98.3919ZM152.545 124.668L190.955 124.668L190.955 214.852L184.987 224.989L179.128 214.891L179.128 136.361L164.345 136.361L164.345 189.542L152.523 169.303L152.545 124.668ZM111.257 31.3469L111.257 56.1756L125.996 56.1756L125.996 45.9347L137.819 45.9347L137.819 83.8041L125.996 83.8041L125.996 73.2251L111.257 73.2251L111.257 98.4872L80.6058 45.9347L99.3995 45.9347L99.3995 31.3469L55.0381 31.3469L184.987 254.173L315.015 31.3469L244.052 31.3469L244.052 45.9347L289.443 45.9347L258.839 98.3746L258.839 57.6058L232.243 57.6058L232.243 31.3296L205.694 31.3296L205.694 14.5705L343.81 14.5705L343.271 15.4849L184.987 286.824L184.453 285.958L26.1907 14.5878L164.359 14.5878L164.359 31.3469L111.257 31.3469Z" fill="#EE2700"/>
</svg>
