<svg width="1920" height="1080" viewBox="0 0 1920 1080" fill="none" xmlns="http://www.w3.org/2000/svg">
<g clip-path="url(#clip0_105_90)">
<rect width="1920" height="1080" fill="black"/>
<path d="M19.8013 744.035V1079.96H623L0.0443752 1L-623 1080H-20.1269V744.08H-69.9408V923.138H-109.899V833.431H-199.581V657.436L-69.9408 432.798V654.313H-159.668V793.521H-109.854V704.124H159.49V588.165L199.448 657.436V744.035H109.691V923.094H69.7336V744.035H19.8013ZM109.691 654.313H-20.1269V346.376L0.0443752 311.763L19.8457 346.243V614.388H69.8076V432.798L109.765 501.906L109.691 654.313ZM249.233 972.964V888.185H199.419V923.153H159.461V793.846H199.419V829.969H249.233V743.71L352.827 923.153H289.309V972.964H439.239L0.0443752 212.112L-439.416 972.964H-199.581V923.153H-352.989L-249.558 744.094V883.302H-159.668V973.023H-69.9408V1030.25H-536.736L-534.915 1027.13L0.0443752 100.622L1.84987 103.582L536.736 1030.19H69.7632V972.964H249.233Z" fill="white"/>
<path d="M1890.1 723.5L1875.4 721.8C1873.5 726.1 1872.6 730.9 1872.6 735.9C1872.6 784.3 1945.2 784.4 1945.2 735.9C1945.2 730.9 1944 724.6 1942.2 720.2L1927.4 722.1C1928.8 724.8 1930.6 729.7 1930.6 735.9C1930.6 764.2 1887 764.2 1887 735.9C1887 729.7 1888.7 726.2 1890.1 723.5ZM1946 668.944C1946 619.744 1872.3 619.744 1872.3 668.944C1872.3 718.144 1946 718.144 1946 668.944ZM1931.2 668.944C1931.2 697.544 1887 697.544 1887 668.944C1887 640.344 1931.2 640.344 1931.2 668.944ZM1906.1 598.876L1946.5 562.676L1946.5 558.876L1873.6 558.876L1873.6 573.276L1914 573.276L1872 609.376L1872 613.176L1945 613.176L1945 598.876L1906.1 598.876ZM1945 511.166L1887.8 511.166L1887.8 493.366L1873.6 493.366L1873.6 543.266L1887.8 543.266L1887.8 525.466L1945 525.466L1945 511.166ZM1945 489.826L1945 473.626L1937.3 470.826L1937.3 447.126L1945 444.226L1945 428.126L1870.9 458.226L1870.9 459.726L1945 489.826ZM1923.9 465.626L1905.3 458.926L1923.9 452.426L1923.9 465.626ZM1890.1 369.437L1875.4 367.737C1873.5 372.037 1872.6 376.837 1872.6 381.837C1872.6 430.238 1945.2 430.338 1945.2 381.837C1945.2 376.837 1944 370.537 1942.2 366.137L1927.4 368.037C1928.8 370.737 1930.6 375.637 1930.6 381.837C1930.6 410.138 1887 410.137 1887 381.837C1887 375.637 1888.7 372.137 1890.1 369.437ZM1945 323.181L1887.8 323.181L1887.8 305.381L1873.6 305.381L1873.6 355.281L1887.8 355.281L1887.8 337.481L1945 337.481L1945 323.181Z" fill="white"/>
<rect width="1920" height="1080" fill="black" fill-opacity="0.96"/>
</g>
<defs>
<clipPath id="clip0_105_90">
<rect width="1920" height="1080" fill="white"/>
</clipPath>
</defs>
</svg>
