<svg width="1920" height="1080" viewBox="0 0 1920 1080" fill="none" xmlns="http://www.w3.org/2000/svg">
<g clip-path="url(#clip0_20_187)">
<rect width="1920" height="1080" fill="black"/>
<path d="M1939.8 744.035V1079.96H2543L1920.04 1L1297 1080H1899.87V744.08H1850.06V923.138H1810.1V833.431H1720.42V657.436L1850.06 432.798V654.313H1760.33V793.521H1810.15V704.124H2079.49V588.165L2119.45 657.436V744.035H2029.69V923.094H1989.73V744.035H1939.8ZM2029.69 654.313H1899.87V346.376L1920.04 311.763L1939.85 346.243V614.388H1989.81V432.798L2029.77 501.906L2029.69 654.313ZM2169.23 972.964V888.185H2119.42V923.153H2079.46V793.846H2119.42V829.969H2169.23V743.71L2272.83 923.153H2209.31V972.964H2359.24L1920.04 212.112L1480.58 972.964H1720.42V923.153H1567.01L1670.44 744.094V883.302H1760.33V973.023H1850.06V1030.25H1383.26L1385.08 1027.13L1920.04 100.622L1921.85 103.582L2456.74 1030.19H1989.76V972.964H2169.23Z" fill="white"/>
<path d="M20.8013 744.035V1079.96H624L1.04438 1L-622 1080H-19.1269V744.08H-68.9408V923.138H-108.899V833.431H-198.581V657.436L-68.9408 432.798V654.313H-158.668V793.521H-108.854V704.124H160.49V588.165L200.448 657.436V744.035H110.691V923.094H70.7336V744.035H20.8013ZM110.691 654.313H-19.1269V346.376L1.04438 311.763L20.8457 346.243V614.388H70.8076V432.798L110.765 501.906L110.691 654.313ZM250.233 972.964V888.185H200.419V923.153H160.461V793.846H200.419V829.969H250.233V743.71L353.827 923.153H290.309V972.964H440.239L1.04438 212.112L-438.416 972.964H-198.581V923.153H-351.989L-248.558 744.094V883.302H-158.668V973.023H-68.9408V1030.25H-535.736L-533.915 1027.13L1.04438 100.622L2.84987 103.582L537.736 1030.19H70.7632V972.964H250.233Z" fill="white"/>
<rect width="1920" height="1080" fill="black" fill-opacity="0.96"/>
</g>
<defs>
<clipPath id="clip0_20_187">
<rect width="1920" height="1080" fill="white"/>
</clipPath>
</defs>
</svg>
