<svg width="1920" height="1080" viewBox="0 0 1920 1080" fill="none" xmlns="http://www.w3.org/2000/svg">
<g clip-path="url(#clip0_26_408)">
<rect width="1920" height="1080" fill="#0C1526"/>
<path d="M979.801 744.035V1079.96H1583L960.044 1L337 1080H939.873V744.08H890.059V923.138H850.101V833.431H760.419V657.436L890.059 432.798V654.313H800.332V793.521H850.146V704.124H1119.49V588.165L1159.45 657.436V744.035H1069.69V923.094H1029.73V744.035H979.801ZM1069.69 654.313H939.873V346.376L960.044 311.763L979.846 346.243V614.388H1029.81V432.798L1069.77 501.906L1069.69 654.313ZM1209.23 972.964V888.185H1159.42V923.153H1119.46V793.846H1159.42V829.969H1209.23V743.71L1312.83 923.153H1249.31V972.964H1399.24L960.044 212.112L520.584 972.964H760.419V923.153H607.011L710.442 744.094V883.302H800.332V973.023H890.059V1030.25H423.264L425.085 1027.13L960.044 100.622L961.85 103.582L1496.74 1030.19H1029.76V972.964H1209.23Z" fill="white"/>
<rect width="1920" height="1080" fill="black" fill-opacity="0.95"/>
</g>
<defs>
<clipPath id="clip0_26_408">
<rect width="1920" height="1080" fill="white"/>
</clipPath>
</defs>
</svg>
