<svg width="33" height="44" viewBox="0 0 33 44" fill="none" xmlns="http://www.w3.org/2000/svg">
<path d="M16.5 42L16.1339 42.3405L16.5 42.7342L16.8661 42.3405L16.5 42ZM16.5 42C16.8661 42.3405 16.8662 42.3404 16.8664 42.3402L16.867 42.3396L16.8693 42.3371L16.8781 42.3277L16.912 42.2909C16.9418 42.2586 16.9858 42.2107 17.0431 42.1481C17.1576 42.0228 17.3252 41.8384 17.5383 41.6008C17.9643 41.1257 18.5724 40.438 19.3017 39.5858C20.76 37.8821 22.7056 35.5187 24.6523 32.8819C26.5976 30.247 28.5515 27.3291 30.0212 24.5174C31.483 21.7209 32.5 18.9666 32.5 16.6765C32.5 7.7478 25.3419 0.5 16.5 0.5C7.65812 0.5 0.5 7.7478 0.5 16.6765C0.5 18.9666 1.51695 21.7209 2.97876 24.5174C4.44847 27.3291 6.40242 30.247 8.34775 32.8819C10.2944 35.5187 12.24 37.8821 13.6983 39.5858C14.4276 40.438 15.0357 41.1257 15.4617 41.6008C15.6748 41.8384 15.8424 42.0228 15.9569 42.1481C16.0142 42.2107 16.0582 42.2586 16.088 42.2909L16.1219 42.3277L16.1307 42.3371L16.133 42.3396L16.1336 42.3402C16.1338 42.3404 16.1339 42.3405 16.5 42Z" fill="#F8A35B" stroke="white"/>
<path d="M16.4134 17.3257C15.1344 17.2 14.6806 18.3734 13.3603 19.3372C11.4212 20.762 11.5862 22.2287 12.5764 22.6478C13.6079 23.0669 14.6393 22.0192 15.7533 22.1868C16.9085 22.3125 17.6511 23.6535 18.7238 23.4859C19.7965 23.3183 20.3329 21.9354 18.8063 20.0915C17.8161 18.7924 17.6924 17.5352 16.4134 17.3257Z" fill="white"/>
<path d="M13.3993 15.9443C13.9769 17.0338 13.8944 18.2491 13.193 18.6263C12.4916 19.0034 11.4602 18.4167 10.8826 17.3272C10.305 16.2376 10.3875 15.0223 11.0889 14.6452C11.7903 14.268 12.8217 14.8547 13.3993 15.9443Z" fill="white"/>
<path d="M19.6273 16.7801C18.8021 17.702 18.5546 18.8754 19.1322 19.4202C19.7098 19.965 20.865 19.6716 21.6902 18.7916C22.5153 17.8697 22.7629 16.6963 22.1852 16.1515C21.6489 15.6067 20.4937 15.8582 19.6273 16.7801Z" fill="white"/>
<path d="M16.5338 13.8056C16.5751 15.1047 15.9562 16.1942 15.1311 16.2361C14.3059 16.278 13.5633 15.2304 13.522 13.9313C13.4395 12.6322 14.0584 11.5426 14.8835 11.5007C15.7499 11.4588 16.4513 12.5065 16.5338 13.8056Z" fill="white"/>
<path d="M17.1927 13.8947C16.8214 15.1519 17.1102 16.3671 17.9354 16.6186C18.7605 16.87 19.6682 16.0738 20.0808 14.8166C20.4521 13.5594 20.1633 12.3442 19.3381 12.0927C18.513 11.8413 17.564 12.6375 17.1927 13.8947Z" fill="white"/>
<path d="M15.4451 4C16.148 4 16.8515 4 17.5544 4C17.8244 4.12076 17.9056 4.3375 17.8988 4.61963C17.8877 5.04994 17.8961 5.48025 17.8961 5.91057C17.8961 6.2333 17.8961 6.55551 17.8961 6.88035C20.3055 7.23525 22.3647 8.23352 24.0654 9.93525C25.7708 11.6412 26.769 13.7089 27.1197 16.1057C27.8891 16.1057 28.6353 16.1126 29.3804 16.102C29.663 16.0983 29.8792 16.1748 30 16.4448C30 17.1477 30 17.8512 30 18.5542C29.8792 18.8247 29.6625 18.9027 29.3799 18.8969C28.8441 18.8853 28.3083 18.8938 27.7725 18.8938C27.5558 18.8938 27.3391 18.8938 27.1181 18.8938C26.7648 21.3037 25.765 23.363 24.0649 25.0642C22.36 26.7702 20.2928 27.7695 17.8961 28.1196C17.8961 28.889 17.8898 29.6347 17.8993 30.3804C17.903 30.6625 17.8233 30.8787 17.5549 31C16.852 31 16.1485 31 15.4456 31C15.1761 30.8792 15.0954 30.663 15.1012 30.3809C15.1123 29.8804 15.1044 29.3795 15.1044 28.879C15.1044 28.627 15.1044 28.3749 15.1044 28.117C12.6961 27.7642 10.6368 26.7644 8.93567 25.0642C7.22974 23.3593 6.23044 21.2916 5.88082 18.8943C5.11092 18.8943 4.36527 18.888 3.62014 18.8975C3.33749 18.9012 3.1197 18.8257 3 18.5547C3 17.8517 3 17.1483 3 16.4453C3.11549 16.189 3.31693 16.0967 3.59272 16.1031C4.04939 16.1141 4.50606 16.1057 4.96326 16.1057C5.26806 16.1057 5.57339 16.1057 5.8824 16.1057C6.23414 13.6957 7.23396 11.6365 8.93514 9.93578C10.6405 8.23035 12.7082 7.23104 15.1044 6.88141C15.1044 6.11043 15.1107 5.36477 15.1012 4.6191C15.097 4.33697 15.1751 4.12023 15.4451 4ZM8.58815 17.4815C8.57761 21.8506 12.1113 25.4007 16.4808 25.4117C20.8497 25.4228 24.4018 21.8875 24.4113 17.5195C24.4203 13.1468 20.8908 9.59881 16.5208 9.58826C12.1577 9.57771 8.5987 13.1188 8.58815 17.4815Z" fill="white"/>
</svg>
